# xmcd
#
# Track frame offsets:
#	150
#	15478
#	28646
#	46444
#	63576
#	78981
#	96742
#	115040
#	132338
#	147562
#	162823
#	174071
#	192296
#	210479
#	231447
#	248038
#	266457
#	283614
#
# Disc length: 4031 seconds
#
# Revision: 0
# Processed by: cddbd v1.5.2PL0 Copyright (c) Steve Scherf et al.
# Submitted via: EasyCDDAExtractor 16.0.6.1
#
DISCID=fb0fbd12
DTITLE=Συλλογικός δίσκος - Εντέχνως Ελληνικά 3
DYEAR=2011
DGENRE=Έντεχνη
TTITLE0=Στόκας Μπάμπης - Τι είναι αυτό που μάς χωρίζει [Sasa Dragic-Φίλ. Πλιάτ
TTITLE0=σικας]
TTITLE1=Αρβανιτάκη Ελευθερία - Στις άκρες απ' τα μάτια σου [Γιώργος Ζήκας]
TTITLE2=Περίδης Ορφέας - Κάτι μού κρύβεις [Ορφέας Περίδης]
TTITLE3=Κατσιμίχας Πάνος - Δε φταίω εγώ που μεγαλώνω [Γ. Νικολάου-ιδίου κ Ο. Ε
TTITLE3=ισαγγελέας]
TTITLE4=Μακεδόνας Κώστας - Κόκκινα γυαλιά [Σταμάτης Κραουνάκης]
TTITLE5=Αντωνοπούλου Ρίτα - Μικρή μου μωβ βεντάλια [Θ. Μικρούτσικος-Α. Μικρούτ
TTITLE5=σικος]
TTITLE6=Λιδάκης Μανώλης - Σκοτάδι γυμνός [Μάνος Σμαργιανάκης]
TTITLE7=Σταυρακάκης Μιχάλης-Χαΐνηδες - Η παντιγέρα [Δημήτρης Αποστολάκης]
TTITLE8=Ξυδάκης Νίκος - Παιδί στην Πελοπόννησο [Ν. Ξυδάκης-Θ. Γκόνης]
TTITLE9=Γερμανός Βαγγέλης - Ο απόκληρος [Βαγγέλης Γερμανός]
TTITLE10=Χειμερινοί Κολυμβητές - Από το πάρκο στη Μυροβόλο [Αργύρης Μπακιρτζής
TTITLE10=]
TTITLE11=Μουτσάτσου Αναστασία - Άκρη δεν έχει ο ουρανός [Ν. Μαυρουδής-Γ. Κακου
TTITLE11=λίδης]
TTITLE12=Σιδηρόπουλος Παύλος - Να μ' αγαπάς [Ανδρέας Θωμόπουλος]
TTITLE13=Θηβαίος Χρήστος - Ξημέρωμα στην εθνική [Χρήστος Θηβαίος]
TTITLE14=Κατσιμίχας Πάνος-Ξυδούς Μάνος - Μιά τρελλή ζαριά [Πάνος Κατσιμίχας]
TTITLE15=Κίτρινα Ποδήλατα - Ταξειδεύω το 'εγώ μου'' [Κίτρινα Ποδήλατα]
TTITLE16=Τσακνής Διονύσης - Βουτιά(Un autre nom)[Cyril Paulus-Catherine Faour,
TTITLE16=απ.Λ.Δημοπούλου]
TTITLE17=Ψαραντώνης-Κοτονιάς Θοδωρής - Το φαινόμενο του θερμοκηπίου [Θοδωρής Κ
TTITLE17=οτονιάς]
EXTD=
EXTT0=
EXTT1=
EXTT2=
EXTT3=
EXTT4=
EXTT5=
EXTT6=
EXTT7=
EXTT8=
EXTT9=
EXTT10=
EXTT11=
EXTT12=
EXTT13=
EXTT14=
EXTT15=
EXTT16=
EXTT17=
PLAYORDER=
